<svg width="342" height="342" viewBox="0 0 342 342" fill="none" xmlns="http://www.w3.org/2000/svg">
<path d="M146.858 257.333C143.138 238.132 156.932 194.275 164.293 174.746C166.747 175.908 187.282 171.907 193.869 162.358C199.139 154.719 208.088 151.719 212.467 150.358C218.279 148.551 227.965 148.809 229.773 153.196L231.711 157.713C238.039 175.908 232.529 203.566 228.611 215.911L214.146 218.491C203.194 200.736 208.808 179.091 212.984 170.488C208.541 176.476 196.065 182.79 190.382 185.199C190.124 201.071 165.843 255.784 160.548 259.269C156.312 262.056 149.656 259.14 146.858 257.333Z" fill="#212121"/>
<path d="M156.135 260.496L154.327 263.782M154.327 263.782C160.12 262.873 165.254 264.277 167.245 265.181C169.699 266.297 171.869 269.06 172.282 272.08C172.696 275.099 170.732 275.594 169.699 275.464C163.714 275.117 150.89 274.214 147.48 273.381C146.07 273.037 145.288 272.339 144.896 271.544C144.341 270.417 144.568 269.094 144.896 268.305L145.192 267.524L148.643 258.413L154.327 263.782ZM154.327 263.782C153.73 263.876 153.126 263.994 152.518 264.14L154.327 263.782Z" stroke="#212121" stroke-width="2" stroke-linecap="round"/>
<path d="M216.209 217.791C216.08 221.62 216.428 229.158 217.374 230.311C218.54 231.731 219.964 231.859 228.639 229.149C235.58 226.981 238.35 226.955 240.034 226.697C241.199 226.518 242.623 226.361 242.623 223.47C242.623 219.856 241.199 217.404 236.796 216.887C233.275 216.474 228.251 218.608 226.179 219.727V216.242" stroke="#212121" stroke-width="2" stroke-linecap="round"/>
<path d="M199.635 87.8779C186.335 89.222 160.198 94.8873 162.058 106.795C162.343 107.806 163.162 109.419 164.689 110.937C166.159 112.398 168.286 113.771 171.226 114.431" stroke="#212121" stroke-width="2" stroke-linecap="round"/>
<path d="M164.689 110.938C168.848 117.409 181.04 131.465 196.536 135.918" stroke="#212121" stroke-width="2" stroke-linecap="round"/>
<path d="M196.437 135.917C197.384 134.644 199.873 132.344 202.796 132.235" stroke="#212121" stroke-width="2" stroke-linecap="round"/>
<path d="M202.795 132.235C202.709 128.601 199.643 119.23 188.069 110.815" stroke="#212121" stroke-width="2" stroke-linecap="round"/>
<path d="M184.722 113.828C185.924 111.883 189.614 107.755 194.763 106.8" stroke="#212121" stroke-width="2" stroke-linecap="round"/>
<path d="M213.506 110.146C214.063 110.806 215.179 112.599 215.179 114.497" stroke="#212121" stroke-width="2" stroke-linecap="round"/>
<path d="M213.374 137.929C216.011 137.8 221.52 137.413 222.454 136.897C223.621 136.252 223.881 136.252 223.881 134.962C223.881 133.673 213.374 135.865 213.374 131.738C214.325 130.793 215.864 128.669 214.412 127.74C212.959 126.812 209.915 129.503 208.575 130.965C207.191 132.426 204.086 134.731 202.737 132.254" stroke="#212121" stroke-width="2" stroke-linecap="round"/>
<path d="M196.771 135.866C197.938 139.262 202.141 145.358 209.612 142.572C217.084 139.787 217.395 138.316 216.617 137.93" stroke="#212121" stroke-width="2" stroke-linecap="round"/>
<path d="M261.118 137.311C262.934 136.815 266.902 134.506 268.251 129.242C269.6 123.977 267.775 123.951 266.695 124.596" stroke="#212121" stroke-width="2" stroke-linecap="round"/>
<path d="M254.375 133.499C254.936 130.575 256.916 124.932 260.34 125.757" stroke="#212121" stroke-width="2" stroke-linecap="round"/>
<path d="M255.801 128.726C253.415 126.764 251.954 131.263 251.521 133.758C248.824 134.584 247.804 138.489 247.631 140.339C253.873 140.979 258.309 139.303 261.118 137.311C262.838 136.092 263.949 134.754 264.49 133.758C265.831 130.188 267.784 122.739 264.879 121.5C261.974 120.261 261.162 123.048 261.118 124.597C261.43 128.107 259.605 131.995 258.655 133.5" stroke="#212121" stroke-width="2" stroke-linecap="round"/>
<path d="M218.191 137.887C223.811 143.134 237.566 150.97 247.63 140.338" stroke="#212121" stroke-width="2" stroke-linecap="round"/>
<path d="M217.187 138.595C217.187 141.031 216.585 146.583 214.175 149.305" stroke="#212121" stroke-width="2" stroke-linecap="round"/>
<path d="M164.641 144.285C159.337 151.444 151.912 167.625 164.641 175.077" stroke="#212121" stroke-width="2" stroke-linecap="round"/>
<path d="M323.283 113.493L326.296 108.473" stroke="#212121" stroke-width="2" stroke-linecap="round"/>
<path d="M324.756 116.118L330.312 115.859" stroke="#212121" stroke-width="2" stroke-linecap="round"/>
<path d="M323.618 119.183L326.965 123.534" stroke="#212121" stroke-width="2" stroke-linecap="round"/>
<path d="M214.215 276.823H123.809V321" stroke="#8F8F8F" stroke-width="2" stroke-linecap="round"/>
<path d="M277.072 232.776H203.092V286.64" stroke="#8F8F8F" stroke-width="2" stroke-linecap="round"/>
<path d="M325.961 171.032H265.949V242.981" stroke="#8F8F8F" stroke-width="2" stroke-linecap="round"/>
<path d="M315.355 124.036V181.108" stroke="#8F8F8F" stroke-width="2" stroke-linecap="round"/>
<path d="M315.355 104.122V108.975" stroke="#212121" stroke-width="2" stroke-linecap="round"/>
<path d="M198.124 139.109L124.033 147.631C115.462 140.765 117.536 130.514 119.644 126.248L171.146 120.074" stroke="#212121" stroke-width="2" stroke-linecap="round"/>
<path d="M223.552 137.051L248.98 134.607" stroke="#212121" stroke-width="2" stroke-linecap="round"/>
<path d="M267.567 131.907L284.218 130.749L306.549 120.628C303.864 117.778 305.337 115.239 306.455 114.33L284.218 109.143L196.187 116.474" stroke="#212121" stroke-width="2" stroke-linecap="round"/>
<path d="M111.666 126.354L119.213 125.542C113.979 137.269 119.979 145.247 123.809 148.351L115 149.64C107.637 140.673 109.535 130.638 111.666 126.354Z" fill="#212121"/>
<path d="M307.352 121.192C304.551 118.268 306.125 114.786 307.292 113.661L317.928 116.286L307.352 121.192Z" fill="#212121"/>
<path d="M284.46 109.143C281.682 112.67 277.792 121.892 284.46 130.563" stroke="#212121" stroke-width="2"/>
<path d="M220.472 90.1364C222.686 88.7738 239.34 90.0872 242.577 69.1387C248.12 69.2036 251.135 64.6629 246.905 62.7197C242.396 60.3946 242.735 56.126 243.552 53.6108C244.85 50.3124 244.929 46.8493 244.649 46.125" stroke="#212121" stroke-width="2" stroke-linecap="round"/>
<path d="M237.691 61.5746C238.32 61.582 238.839 60.8231 238.85 59.8796C238.861 58.9361 238.36 58.1652 237.731 58.1579C237.102 58.1505 236.583 58.9094 236.572 59.8529C236.561 60.7964 237.062 61.5672 237.691 61.5746Z" fill="#212121"/>
<path d="M234.599 54.6605C235.523 53.6718 237.915 52.2257 240.082 54.3499" stroke="#212121" stroke-width="2" stroke-linecap="round"/>
<path d="M228.316 73.9102C230.016 76.5257 231.882 77.2684 235.507 75.5806" stroke="#212121" stroke-width="2" stroke-linecap="round"/>
<path d="M214.402 55.5771C214.008 56.442 213.678 58.4053 215.509 59.3397" stroke="#212121" stroke-width="2" stroke-linecap="round"/>
<path d="M194.891 46.6959C192.735 58.4955 199.483 67.3778 204.375 74.2061C209.6 71.3833 218.163 64.6708 214.879 63.9462C211.427 63.1848 207.786 53.7689 211.138 50.8885C215.071 47.5091 218.616 52.6223 219.292 56.4994L222.46 51.0211C221.564 47.1894 221.213 40.4681 226.974 44.2361C232.735 48.0041 241.185 47.0171 244.691 46.0526C251.602 41.1057 262.339 29.5668 250 22.9865C239.737 17.5135 226.382 24.4329 218.23 30.6502C212.71 29.193 197.832 30.6077 194.891 46.6959Z" fill="#212121"/>
<path d="M204.759 73.416C207.253 76.4195 208.493 78.9136 208.338 84.0802" stroke="#212121" stroke-width="2" stroke-linecap="round"/>
<path d="M201.983 90.9966C201.11 87.9496 200.598 82.1381 205.538 83.2676C211.714 84.6793 224.301 90.7861 223.379 94.1711" stroke="#212121" stroke-width="2" stroke-linecap="round"/>
<path d="M223.379 98.9346C227.897 103.118 228.901 105.796 229.57 110.816" stroke="#212121" stroke-width="2" stroke-linecap="round"/>
<path d="M11.688 234.634C17.8258 234.075 32.2885 237.735 41.9497 256.559C42.2024 257.051 42.9149 257.064 43.1666 256.571C53.0764 237.171 65.239 217.492 103.683 241.187C104.274 241.551 105.049 240.891 104.757 240.262C98.5191 226.847 95.1484 201.264 124.213 188.573C124.796 188.318 124.771 187.452 124.16 187.273L116.642 185.076C115.953 184.874 116.028 183.929 116.743 183.864C124.488 183.166 135.414 183.621 131.652 188.191C127.26 193.526 126.18 196.899 127.251 202.469" stroke="#8F8F8F" stroke-width="2" stroke-linecap="round"/>
</svg>
