<svg width="800" height="444" viewBox="0 0 800 444" fill="none" xmlns="http://www.w3.org/2000/svg">
<g clip-path="url(#clip0_52_14606)">
<rect width="800" height="444" fill="white"/>
<path d="M374.784 177.496V182.92H365.856V211H359.136V182.92H350.208V177.496H374.784ZM383.095 181.24C381.911 181.24 380.919 180.872 380.119 180.136C379.351 179.368 378.967 178.424 378.967 177.304C378.967 176.184 379.351 175.256 380.119 174.52C380.919 173.752 381.911 173.368 383.095 173.368C384.279 173.368 385.255 173.752 386.023 174.52C386.823 175.256 387.223 176.184 387.223 177.304C387.223 178.424 386.823 179.368 386.023 180.136C385.255 180.872 384.279 181.24 383.095 181.24ZM386.407 184.408V211H379.687V184.408H386.407ZM400.87 189.928V202.792C400.87 203.688 401.078 204.344 401.494 204.76C401.942 205.144 402.678 205.336 403.702 205.336H406.822V211H402.598C396.934 211 394.102 208.248 394.102 202.744V189.928H390.934V184.408H394.102V177.832H400.87V184.408H406.822V189.928H400.87ZM418.376 175.48V211H411.656V175.48H418.376ZM449.735 197.128C449.735 198.088 449.671 198.952 449.543 199.72H430.103C430.263 201.64 430.935 203.144 432.119 204.232C433.303 205.32 434.759 205.864 436.487 205.864C438.983 205.864 440.759 204.792 441.815 202.648H449.063C448.295 205.208 446.823 207.32 444.647 208.984C442.471 210.616 439.799 211.432 436.631 211.432C434.071 211.432 431.767 210.872 429.719 209.752C427.703 208.6 426.119 206.984 424.967 204.904C423.847 202.824 423.287 200.424 423.287 197.704C423.287 194.952 423.847 192.536 424.967 190.456C426.087 188.376 427.655 186.776 429.671 185.656C431.687 184.536 434.007 183.976 436.631 183.976C439.159 183.976 441.415 184.52 443.399 185.608C445.415 186.696 446.967 188.248 448.055 190.264C449.175 192.248 449.735 194.536 449.735 197.128ZM442.775 195.208C442.743 193.48 442.119 192.104 440.903 191.08C439.687 190.024 438.199 189.496 436.439 189.496C434.775 189.496 433.367 190.008 432.215 191.032C431.095 192.024 430.407 193.416 430.151 195.208H442.775Z" fill="#212121"/>
<path d="M370.224 256.576C370.144 256.712 370.06 256.812 369.972 256.876C369.884 256.94 369.772 256.972 369.636 256.972C369.492 256.972 369.328 256.908 369.144 256.78C368.96 256.644 368.728 256.496 368.448 256.336C368.176 256.168 367.848 256.02 367.464 255.892C367.08 255.756 366.62 255.688 366.084 255.688C365.58 255.688 365.136 255.756 364.752 255.892C364.376 256.02 364.06 256.2 363.804 256.432C363.548 256.656 363.352 256.924 363.216 257.236C363.088 257.54 363.024 257.872 363.024 258.232C363.024 258.696 363.14 259.08 363.372 259.384C363.612 259.688 363.924 259.948 364.308 260.164C364.692 260.38 365.128 260.568 365.616 260.728C366.104 260.888 366.604 261.056 367.116 261.232C367.628 261.4 368.128 261.596 368.616 261.82C369.104 262.044 369.54 262.328 369.924 262.672C370.308 263.008 370.616 263.424 370.848 263.92C371.088 264.408 371.208 265.008 371.208 265.72C371.208 266.48 371.076 267.192 370.812 267.856C370.556 268.52 370.18 269.1 369.684 269.596C369.188 270.092 368.576 270.484 367.848 270.772C367.128 271.052 366.308 271.192 365.388 271.192C364.836 271.192 364.3 271.136 363.78 271.024C363.26 270.92 362.768 270.772 362.304 270.58C361.84 270.38 361.404 270.144 360.996 269.872C360.596 269.592 360.236 269.28 359.916 268.936L360.648 267.712C360.72 267.616 360.804 267.536 360.9 267.472C361.004 267.408 361.12 267.376 361.248 267.376C361.416 267.376 361.608 267.464 361.824 267.64C362.048 267.816 362.32 268.012 362.64 268.228C362.968 268.436 363.356 268.628 363.804 268.804C364.26 268.98 364.812 269.068 365.46 269.068C365.988 269.068 366.46 269 366.876 268.864C367.292 268.72 367.64 268.52 367.92 268.264C368.208 268 368.428 267.684 368.58 267.316C368.732 266.948 368.808 266.54 368.808 266.092C368.808 265.588 368.692 265.176 368.46 264.856C368.228 264.536 367.92 264.268 367.536 264.052C367.152 263.836 366.716 263.652 366.228 263.5C365.74 263.348 365.24 263.192 364.728 263.032C364.216 262.864 363.716 262.672 363.228 262.456C362.74 262.24 362.304 261.96 361.92 261.616C361.536 261.264 361.228 260.828 360.996 260.308C360.764 259.78 360.648 259.132 360.648 258.364C360.648 257.748 360.768 257.152 361.008 256.576C361.248 256 361.596 255.492 362.052 255.052C362.516 254.604 363.084 254.248 363.756 253.984C364.428 253.712 365.196 253.576 366.06 253.576C367.028 253.576 367.916 253.732 368.724 254.044C369.54 254.348 370.248 254.788 370.848 255.364L370.224 256.576ZM383.788 258.808V271H382.384C382.064 271 381.856 270.844 381.76 270.532L381.592 269.308C381.328 269.588 381.052 269.844 380.764 270.076C380.476 270.308 380.168 270.508 379.84 270.676C379.512 270.836 379.164 270.96 378.796 271.048C378.428 271.144 378.032 271.192 377.608 271.192C376.936 271.192 376.344 271.08 375.832 270.856C375.328 270.632 374.904 270.32 374.56 269.92C374.216 269.512 373.956 269.024 373.78 268.456C373.604 267.888 373.516 267.26 373.516 266.572V258.808H375.868V266.572C375.868 267.444 376.068 268.124 376.468 268.612C376.868 269.092 377.48 269.332 378.304 269.332C378.904 269.332 379.464 269.192 379.984 268.912C380.504 268.624 380.992 268.232 381.448 267.736V258.808H383.788ZM389.394 268C389.778 268.504 390.194 268.856 390.642 269.056C391.09 269.256 391.578 269.356 392.106 269.356C393.194 269.356 394.03 268.968 394.614 268.192C395.206 267.416 395.502 266.244 395.502 264.676C395.502 263.228 395.242 262.168 394.722 261.496C394.202 260.816 393.466 260.476 392.514 260.476C391.842 260.476 391.258 260.628 390.762 260.932C390.274 261.236 389.818 261.668 389.394 262.228V268ZM389.394 260.488C389.898 259.928 390.47 259.476 391.11 259.132C391.75 258.788 392.478 258.616 393.294 258.616C394.006 258.616 394.646 258.756 395.214 259.036C395.79 259.308 396.278 259.704 396.678 260.224C397.078 260.736 397.386 261.36 397.602 262.096C397.818 262.832 397.926 263.664 397.926 264.592C397.926 265.576 397.802 266.472 397.554 267.28C397.314 268.088 396.966 268.78 396.51 269.356C396.062 269.932 395.514 270.38 394.866 270.7C394.218 271.012 393.49 271.168 392.682 271.168C392.29 271.168 391.93 271.128 391.602 271.048C391.274 270.976 390.97 270.868 390.69 270.724C390.418 270.58 390.166 270.404 389.934 270.196C389.702 269.988 389.482 269.752 389.274 269.488L389.166 270.508C389.102 270.836 388.902 271 388.566 271H387.054V253.288H389.394V260.488ZM411.923 271H409.571V260.704H403.451V267.844C403.451 268.324 403.567 268.684 403.799 268.924C404.039 269.156 404.343 269.272 404.711 269.272C404.927 269.272 405.111 269.244 405.263 269.188C405.423 269.132 405.559 269.072 405.671 269.008C405.783 268.936 405.879 268.872 405.959 268.816C406.039 268.76 406.111 268.732 406.175 268.732C406.255 268.732 406.315 268.752 406.355 268.792C406.403 268.824 406.451 268.88 406.499 268.96L407.195 270.088C406.811 270.44 406.355 270.712 405.827 270.904C405.299 271.096 404.751 271.192 404.183 271.192C403.199 271.192 402.439 270.916 401.903 270.364C401.375 269.812 401.111 269.024 401.111 268V260.704H399.695C399.559 260.704 399.443 260.664 399.347 260.584C399.259 260.496 399.215 260.368 399.215 260.2V259.252L401.207 258.976L401.723 255.34C401.755 255.204 401.815 255.1 401.903 255.028C401.999 254.948 402.119 254.908 402.263 254.908H403.451V259H411.923V271ZM412.451 254.968C412.451 255.184 412.407 255.392 412.319 255.592C412.231 255.784 412.111 255.956 411.959 256.108C411.815 256.252 411.643 256.368 411.443 256.456C411.243 256.536 411.035 256.576 410.819 256.576C410.603 256.576 410.399 256.536 410.207 256.456C410.015 256.368 409.843 256.252 409.691 256.108C409.547 255.956 409.431 255.784 409.343 255.592C409.263 255.392 409.223 255.184 409.223 254.968C409.223 254.744 409.263 254.532 409.343 254.332C409.431 254.132 409.547 253.96 409.691 253.816C409.843 253.664 410.015 253.548 410.207 253.468C410.399 253.38 410.603 253.336 410.819 253.336C411.035 253.336 411.243 253.38 411.443 253.468C411.643 253.548 411.815 253.664 411.959 253.816C412.111 253.96 412.231 254.132 412.319 254.332C412.407 254.532 412.451 254.744 412.451 254.968ZM419.136 271.192C418.152 271.192 417.392 270.916 416.856 270.364C416.328 269.812 416.064 269.024 416.064 268V260.704H414.648C414.512 260.704 414.396 260.664 414.3 260.584C414.212 260.496 414.168 260.368 414.168 260.2V259.252L416.148 258.976L416.676 255.34C416.708 255.204 416.768 255.1 416.856 255.028C416.952 254.948 417.072 254.908 417.216 254.908H418.404V259H421.86V260.704H418.404V267.844C418.404 268.324 418.52 268.684 418.752 268.924C418.992 269.156 419.296 269.272 419.664 269.272C419.88 269.272 420.064 269.244 420.216 269.188C420.376 269.132 420.512 269.072 420.624 269.008C420.736 268.936 420.832 268.872 420.912 268.816C420.992 268.76 421.064 268.732 421.128 268.732C421.208 268.732 421.268 268.752 421.308 268.792C421.356 268.824 421.404 268.88 421.452 268.96L422.148 270.088C421.764 270.44 421.308 270.712 420.78 270.904C420.252 271.096 419.704 271.192 419.136 271.192ZM426.415 253.288V271H424.063V253.288H426.415ZM437.833 263.548C437.833 263.084 437.765 262.656 437.629 262.264C437.501 261.872 437.309 261.532 437.053 261.244C436.797 260.956 436.485 260.732 436.117 260.572C435.749 260.412 435.325 260.332 434.845 260.332C433.861 260.332 433.085 260.616 432.517 261.184C431.957 261.752 431.601 262.54 431.449 263.548H437.833ZM439.765 269.26C439.477 269.596 439.145 269.888 438.769 270.136C438.393 270.376 437.993 270.572 437.569 270.724C437.145 270.876 436.705 270.988 436.249 271.06C435.801 271.132 435.357 271.168 434.917 271.168C434.077 271.168 433.297 271.028 432.577 270.748C431.865 270.46 431.245 270.044 430.717 269.5C430.197 268.948 429.789 268.268 429.493 267.46C429.205 266.644 429.061 265.708 429.061 264.652C429.061 263.804 429.193 263.016 429.457 262.288C429.721 261.552 430.097 260.912 430.585 260.368C431.081 259.824 431.685 259.396 432.397 259.084C433.109 258.772 433.909 258.616 434.797 258.616C435.541 258.616 436.225 258.74 436.849 258.988C437.481 259.228 438.025 259.58 438.481 260.044C438.937 260.508 439.293 261.08 439.549 261.76C439.813 262.44 439.945 263.216 439.945 264.088C439.945 264.448 439.905 264.692 439.825 264.82C439.745 264.94 439.597 265 439.381 265H431.389C431.413 265.728 431.517 266.364 431.701 266.908C431.885 267.444 432.137 267.892 432.457 268.252C432.785 268.612 433.173 268.88 433.621 269.056C434.069 269.232 434.569 269.32 435.121 269.32C435.641 269.32 436.089 269.26 436.465 269.14C436.849 269.02 437.177 268.892 437.449 268.756C437.729 268.612 437.961 268.48 438.145 268.36C438.337 268.24 438.505 268.18 438.649 268.18C438.841 268.18 438.989 268.252 439.093 268.396L439.765 269.26Z" fill="#8F8F8F"/>
</g>
<defs>
<clipPath id="clip0_52_14606">
<rect width="800" height="444" fill="white"/>
</clipPath>
</defs>
</svg>
