<svg width="800" height="444" viewBox="0 0 800 444" fill="none" xmlns="http://www.w3.org/2000/svg">
<g clip-path="url(#clip0_52_17029)">
<rect width="800" height="444" fill="white"/>
<path d="M374.784 157.496V162.92H365.856V191H359.136V162.92H350.208V157.496H374.784ZM383.095 161.24C381.911 161.24 380.919 160.872 380.119 160.136C379.351 159.368 378.967 158.424 378.967 157.304C378.967 156.184 379.351 155.256 380.119 154.52C380.919 153.752 381.911 153.368 383.095 153.368C384.279 153.368 385.255 153.752 386.023 154.52C386.823 155.256 387.223 156.184 387.223 157.304C387.223 158.424 386.823 159.368 386.023 160.136C385.255 160.872 384.279 161.24 383.095 161.24ZM386.407 164.408V191H379.687V164.408H386.407ZM400.87 169.928V182.792C400.87 183.688 401.078 184.344 401.494 184.76C401.942 185.144 402.678 185.336 403.702 185.336H406.822V191H402.598C396.934 191 394.102 188.248 394.102 182.744V169.928H390.934V164.408H394.102V157.832H400.87V164.408H406.822V169.928H400.87ZM418.376 155.48V191H411.656V155.48H418.376ZM449.735 177.128C449.735 178.088 449.671 178.952 449.543 179.72H430.103C430.263 181.64 430.935 183.144 432.119 184.232C433.303 185.32 434.759 185.864 436.487 185.864C438.983 185.864 440.759 184.792 441.815 182.648H449.063C448.295 185.208 446.823 187.32 444.647 188.984C442.471 190.616 439.799 191.432 436.631 191.432C434.071 191.432 431.767 190.872 429.719 189.752C427.703 188.6 426.119 186.984 424.967 184.904C423.847 182.824 423.287 180.424 423.287 177.704C423.287 174.952 423.847 172.536 424.967 170.456C426.087 168.376 427.655 166.776 429.671 165.656C431.687 164.536 434.007 163.976 436.631 163.976C439.159 163.976 441.415 164.52 443.399 165.608C445.415 166.696 446.967 168.248 448.055 170.264C449.175 172.248 449.735 174.536 449.735 177.128ZM442.775 175.208C442.743 173.48 442.119 172.104 440.903 171.08C439.687 170.024 438.199 169.496 436.439 169.496C434.775 169.496 433.367 170.008 432.215 171.032C431.095 172.024 430.407 173.416 430.151 175.208H442.775Z" fill="#212121"/>
<path d="M328 270C328 254.536 340.536 242 356 242H444C459.464 242 472 254.536 472 270C472 285.464 459.464 298 444 298H356C340.536 298 328 285.464 328 270Z" fill="#007038"/>
<path d="M363.177 260.165C363.064 259.604 362.572 259.2 362 259.2C361.428 259.2 360.935 259.604 360.823 260.165L360.537 261.596C360.442 262.071 360.071 262.442 359.596 262.537L358.165 262.823C357.604 262.935 357.2 263.428 357.2 264C357.2 264.572 357.604 265.064 358.165 265.177L359.596 265.463C360.071 265.558 360.442 265.929 360.537 266.404L360.823 267.835C360.935 268.396 361.428 268.8 362 268.8C362.572 268.8 363.064 268.396 363.177 267.835L363.463 266.404C363.558 265.929 363.929 265.558 364.404 265.463L365.835 265.177C366.396 265.064 366.8 264.572 366.8 264C366.8 263.428 366.396 262.935 365.835 262.823L364.404 262.537C363.929 262.442 363.558 262.071 363.463 261.596L363.177 260.165Z" fill="white"/>
<path d="M352.338 264.82C352.175 264.33 351.716 264 351.2 264C350.683 264 350.225 264.33 350.062 264.82L349.241 267.282C349.122 267.64 348.84 267.922 348.482 268.041L346.02 268.862C345.53 269.025 345.2 269.483 345.2 270C345.2 270.516 345.53 270.975 346.02 271.138L348.482 271.959C348.84 272.078 349.122 272.36 349.241 272.718L350.062 275.179C350.225 275.669 350.683 276 351.2 276C351.716 276 352.175 275.669 352.338 275.179L353.159 272.718C353.278 272.36 353.56 272.078 353.918 271.959L356.379 271.138C356.869 270.975 357.2 270.516 357.2 270C357.2 269.483 356.869 269.025 356.379 268.862L353.918 268.041C353.56 267.922 353.278 267.64 353.159 267.282L352.338 264.82Z" fill="white"/>
<path d="M360.738 274.42C360.575 273.93 360.116 273.6 359.6 273.6C359.083 273.6 358.625 273.93 358.462 274.42L358.241 275.082C358.122 275.44 357.84 275.722 357.482 275.841L356.82 276.062C356.33 276.225 356 276.683 356 277.2C356 277.716 356.33 278.175 356.82 278.338L357.482 278.559C357.84 278.678 358.122 278.96 358.241 279.318L358.462 279.979C358.625 280.469 359.083 280.8 359.6 280.8C360.116 280.8 360.575 280.469 360.738 279.979L360.959 279.318C361.078 278.96 361.36 278.678 361.718 278.559L362.379 278.338C362.869 278.175 363.2 277.716 363.2 277.2C363.2 276.683 362.869 276.225 362.379 276.062L361.718 275.841C361.36 275.722 361.078 275.44 360.959 275.082L360.738 274.42Z" fill="white"/>
<path d="M386.456 276.04V278H378.136V263.6H380.476V276.04H386.456ZM393.518 273.54C392.751 273.567 392.104 273.63 391.578 273.73C391.051 273.823 390.624 273.947 390.298 274.1C389.971 274.247 389.734 274.423 389.588 274.63C389.448 274.837 389.378 275.063 389.378 275.31C389.378 275.55 389.414 275.757 389.488 275.93C389.568 276.097 389.674 276.237 389.808 276.35C389.948 276.457 390.108 276.537 390.288 276.59C390.474 276.637 390.678 276.66 390.898 276.66C391.458 276.66 391.938 276.557 392.338 276.35C392.744 276.137 393.138 275.83 393.518 275.43V273.54ZM387.818 269.22C388.971 268.147 390.344 267.61 391.938 267.61C392.524 267.61 393.044 267.707 393.498 267.9C393.958 268.087 394.341 268.353 394.648 268.7C394.961 269.047 395.198 269.46 395.358 269.94C395.524 270.413 395.608 270.94 395.608 271.52V278H394.648C394.441 278 394.284 277.97 394.178 277.91C394.071 277.843 393.981 277.713 393.908 277.52L393.698 276.69C393.438 276.923 393.181 277.133 392.928 277.32C392.674 277.5 392.411 277.653 392.138 277.78C391.871 277.907 391.581 278 391.268 278.06C390.961 278.127 390.621 278.16 390.248 278.16C389.834 278.16 389.448 278.103 389.088 277.99C388.734 277.877 388.428 277.707 388.168 277.48C387.908 277.247 387.701 276.96 387.548 276.62C387.401 276.28 387.328 275.88 387.328 275.42C387.328 275.027 387.431 274.643 387.638 274.27C387.851 273.897 388.198 273.563 388.678 273.27C389.164 272.97 389.801 272.723 390.588 272.53C391.381 272.337 392.358 272.227 393.518 272.2V271.52C393.518 270.787 393.361 270.24 393.048 269.88C392.734 269.52 392.274 269.34 391.668 269.34C391.254 269.34 390.908 269.393 390.628 269.5C390.348 269.6 390.104 269.71 389.898 269.83C389.691 269.95 389.508 270.063 389.348 270.17C389.188 270.27 389.018 270.32 388.838 270.32C388.691 270.32 388.564 270.283 388.458 270.21C388.358 270.13 388.274 270.033 388.208 269.92L387.818 269.22ZM400.276 275.44C400.576 275.827 400.903 276.1 401.256 276.26C401.616 276.413 402.006 276.49 402.426 276.49C403.273 276.49 403.933 276.183 404.406 275.57C404.88 274.957 405.116 274.007 405.116 272.72C405.116 271.547 404.91 270.69 404.496 270.15C404.09 269.61 403.506 269.34 402.746 269.34C402.22 269.34 401.76 269.46 401.366 269.7C400.98 269.933 400.616 270.27 400.276 270.71V275.44ZM400.276 269.15C400.696 268.69 401.166 268.323 401.686 268.05C402.206 267.777 402.8 267.64 403.466 267.64C404.06 267.64 404.593 267.757 405.066 267.99C405.546 268.217 405.953 268.547 406.286 268.98C406.62 269.413 406.876 269.94 407.056 270.56C407.236 271.173 407.326 271.867 407.326 272.64C407.326 273.467 407.223 274.22 407.016 274.9C406.816 275.573 406.526 276.153 406.146 276.64C405.766 277.12 405.306 277.493 404.766 277.76C404.226 278.02 403.623 278.15 402.956 278.15C402.63 278.15 402.333 278.117 402.066 278.05C401.8 277.99 401.553 277.9 401.326 277.78C401.1 277.66 400.89 277.517 400.696 277.35C400.51 277.183 400.33 276.993 400.156 276.78L400.066 277.57C400.033 277.723 399.973 277.833 399.886 277.9C399.8 277.967 399.68 278 399.526 278H398.126V263.2H400.276V269.15ZM416.105 271.75C416.105 271.39 416.052 271.057 415.945 270.75C415.845 270.437 415.695 270.167 415.495 269.94C415.295 269.707 415.045 269.527 414.745 269.4C414.452 269.267 414.112 269.2 413.725 269.2C412.945 269.2 412.332 269.423 411.885 269.87C411.439 270.317 411.155 270.943 411.035 271.75H416.105ZM410.975 273.07C411.002 273.65 411.092 274.153 411.245 274.58C411.399 275 411.602 275.35 411.855 275.63C412.115 275.91 412.422 276.12 412.775 276.26C413.135 276.393 413.535 276.46 413.975 276.46C414.395 276.46 414.759 276.413 415.065 276.32C415.372 276.22 415.639 276.113 415.865 276C416.092 275.88 416.285 275.773 416.445 275.68C416.605 275.58 416.752 275.53 416.885 275.53C417.059 275.53 417.192 275.597 417.285 275.73L417.895 276.52C417.642 276.82 417.355 277.073 417.035 277.28C416.715 277.487 416.375 277.657 416.015 277.79C415.655 277.917 415.285 278.007 414.905 278.06C414.525 278.12 414.155 278.15 413.795 278.15C413.089 278.15 412.432 278.033 411.825 277.8C411.225 277.56 410.702 277.21 410.255 276.75C409.815 276.29 409.469 275.72 409.215 275.04C408.969 274.36 408.845 273.577 408.845 272.69C408.845 271.983 408.955 271.323 409.175 270.71C409.402 270.097 409.722 269.563 410.135 269.11C410.555 268.657 411.062 268.3 411.655 268.04C412.255 267.773 412.932 267.64 413.685 267.64C414.312 267.64 414.892 267.743 415.425 267.95C415.959 268.15 416.419 268.447 416.805 268.84C417.192 269.233 417.492 269.717 417.705 270.29C417.925 270.857 418.035 271.503 418.035 272.23C418.035 272.563 417.999 272.787 417.925 272.9C417.852 273.013 417.719 273.07 417.525 273.07H410.975ZM422.23 263.2V278H420.08V263.2H422.23Z" fill="white"/>
<path fill-rule="evenodd" clip-rule="evenodd" d="M434.4 270C434.4 269.503 434.803 269.1 435.3 269.1L450.408 269.1L447.888 266.759C447.523 266.421 447.502 265.852 447.841 265.488C448.179 265.123 448.748 265.102 449.112 265.44L453.312 269.34C453.496 269.511 453.6 269.75 453.6 270C453.6 270.25 453.496 270.489 453.312 270.659L449.112 274.559C448.748 274.898 448.179 274.877 447.841 274.512C447.502 274.148 447.523 273.579 447.888 273.24L450.408 270.9L435.3 270.9C434.803 270.9 434.4 270.497 434.4 270Z" fill="white"/>
</g>
<defs>
<clipPath id="clip0_52_17029">
<rect width="800" height="444" fill="white"/>
</clipPath>
</defs>
</svg>
