<svg width="800" height="444" viewBox="0 0 800 444" fill="none" xmlns="http://www.w3.org/2000/svg">
<g clip-path="url(#clip0_52_17044)">
<rect width="800" height="444" fill="white"/>
<path d="M374.784 129.496V134.92H365.856V163H359.136V134.92H350.208V129.496H374.784ZM383.095 133.24C381.911 133.24 380.919 132.872 380.119 132.136C379.351 131.368 378.967 130.424 378.967 129.304C378.967 128.184 379.351 127.256 380.119 126.52C380.919 125.752 381.911 125.368 383.095 125.368C384.279 125.368 385.255 125.752 386.023 126.52C386.823 127.256 387.223 128.184 387.223 129.304C387.223 130.424 386.823 131.368 386.023 132.136C385.255 132.872 384.279 133.24 383.095 133.24ZM386.407 136.408V163H379.687V136.408H386.407ZM400.87 141.928V154.792C400.87 155.688 401.078 156.344 401.494 156.76C401.942 157.144 402.678 157.336 403.702 157.336H406.822V163H402.598C396.934 163 394.102 160.248 394.102 154.744V141.928H390.934V136.408H394.102V129.832H400.87V136.408H406.822V141.928H400.87ZM418.376 127.48V163H411.656V127.48H418.376ZM449.735 149.128C449.735 150.088 449.671 150.952 449.543 151.72H430.103C430.263 153.64 430.935 155.144 432.119 156.232C433.303 157.32 434.759 157.864 436.487 157.864C438.983 157.864 440.759 156.792 441.815 154.648H449.063C448.295 157.208 446.823 159.32 444.647 160.984C442.471 162.616 439.799 163.432 436.631 163.432C434.071 163.432 431.767 162.872 429.719 161.752C427.703 160.6 426.119 158.984 424.967 156.904C423.847 154.824 423.287 152.424 423.287 149.704C423.287 146.952 423.847 144.536 424.967 142.456C426.087 140.376 427.655 138.776 429.671 137.656C431.687 136.536 434.007 135.976 436.631 135.976C439.159 135.976 441.415 136.52 443.399 137.608C445.415 138.696 446.967 140.248 448.055 142.264C449.175 144.248 449.735 146.536 449.735 149.128ZM442.775 147.208C442.743 145.48 442.119 144.104 440.903 143.08C439.687 142.024 438.199 141.496 436.439 141.496C434.775 141.496 433.367 142.008 432.215 143.032C431.095 144.024 430.407 145.416 430.151 147.208H442.775Z" fill="#212121"/>
<path d="M370.224 208.576C370.144 208.712 370.06 208.812 369.972 208.876C369.884 208.94 369.772 208.972 369.636 208.972C369.492 208.972 369.328 208.908 369.144 208.78C368.96 208.644 368.728 208.496 368.448 208.336C368.176 208.168 367.848 208.02 367.464 207.892C367.08 207.756 366.62 207.688 366.084 207.688C365.58 207.688 365.136 207.756 364.752 207.892C364.376 208.02 364.06 208.2 363.804 208.432C363.548 208.656 363.352 208.924 363.216 209.236C363.088 209.54 363.024 209.872 363.024 210.232C363.024 210.696 363.14 211.08 363.372 211.384C363.612 211.688 363.924 211.948 364.308 212.164C364.692 212.38 365.128 212.568 365.616 212.728C366.104 212.888 366.604 213.056 367.116 213.232C367.628 213.4 368.128 213.596 368.616 213.82C369.104 214.044 369.54 214.328 369.924 214.672C370.308 215.008 370.616 215.424 370.848 215.92C371.088 216.408 371.208 217.008 371.208 217.72C371.208 218.48 371.076 219.192 370.812 219.856C370.556 220.52 370.18 221.1 369.684 221.596C369.188 222.092 368.576 222.484 367.848 222.772C367.128 223.052 366.308 223.192 365.388 223.192C364.836 223.192 364.3 223.136 363.78 223.024C363.26 222.92 362.768 222.772 362.304 222.58C361.84 222.38 361.404 222.144 360.996 221.872C360.596 221.592 360.236 221.28 359.916 220.936L360.648 219.712C360.72 219.616 360.804 219.536 360.9 219.472C361.004 219.408 361.12 219.376 361.248 219.376C361.416 219.376 361.608 219.464 361.824 219.64C362.048 219.816 362.32 220.012 362.64 220.228C362.968 220.436 363.356 220.628 363.804 220.804C364.26 220.98 364.812 221.068 365.46 221.068C365.988 221.068 366.46 221 366.876 220.864C367.292 220.72 367.64 220.52 367.92 220.264C368.208 220 368.428 219.684 368.58 219.316C368.732 218.948 368.808 218.54 368.808 218.092C368.808 217.588 368.692 217.176 368.46 216.856C368.228 216.536 367.92 216.268 367.536 216.052C367.152 215.836 366.716 215.652 366.228 215.5C365.74 215.348 365.24 215.192 364.728 215.032C364.216 214.864 363.716 214.672 363.228 214.456C362.74 214.24 362.304 213.96 361.92 213.616C361.536 213.264 361.228 212.828 360.996 212.308C360.764 211.78 360.648 211.132 360.648 210.364C360.648 209.748 360.768 209.152 361.008 208.576C361.248 208 361.596 207.492 362.052 207.052C362.516 206.604 363.084 206.248 363.756 205.984C364.428 205.712 365.196 205.576 366.06 205.576C367.028 205.576 367.916 205.732 368.724 206.044C369.54 206.348 370.248 206.788 370.848 207.364L370.224 208.576ZM383.788 210.808V223H382.384C382.064 223 381.856 222.844 381.76 222.532L381.592 221.308C381.328 221.588 381.052 221.844 380.764 222.076C380.476 222.308 380.168 222.508 379.84 222.676C379.512 222.836 379.164 222.96 378.796 223.048C378.428 223.144 378.032 223.192 377.608 223.192C376.936 223.192 376.344 223.08 375.832 222.856C375.328 222.632 374.904 222.32 374.56 221.92C374.216 221.512 373.956 221.024 373.78 220.456C373.604 219.888 373.516 219.26 373.516 218.572V210.808H375.868V218.572C375.868 219.444 376.068 220.124 376.468 220.612C376.868 221.092 377.48 221.332 378.304 221.332C378.904 221.332 379.464 221.192 379.984 220.912C380.504 220.624 380.992 220.232 381.448 219.736V210.808H383.788ZM389.394 220C389.778 220.504 390.194 220.856 390.642 221.056C391.09 221.256 391.578 221.356 392.106 221.356C393.194 221.356 394.03 220.968 394.614 220.192C395.206 219.416 395.502 218.244 395.502 216.676C395.502 215.228 395.242 214.168 394.722 213.496C394.202 212.816 393.466 212.476 392.514 212.476C391.842 212.476 391.258 212.628 390.762 212.932C390.274 213.236 389.818 213.668 389.394 214.228V220ZM389.394 212.488C389.898 211.928 390.47 211.476 391.11 211.132C391.75 210.788 392.478 210.616 393.294 210.616C394.006 210.616 394.646 210.756 395.214 211.036C395.79 211.308 396.278 211.704 396.678 212.224C397.078 212.736 397.386 213.36 397.602 214.096C397.818 214.832 397.926 215.664 397.926 216.592C397.926 217.576 397.802 218.472 397.554 219.28C397.314 220.088 396.966 220.78 396.51 221.356C396.062 221.932 395.514 222.38 394.866 222.7C394.218 223.012 393.49 223.168 392.682 223.168C392.29 223.168 391.93 223.128 391.602 223.048C391.274 222.976 390.97 222.868 390.69 222.724C390.418 222.58 390.166 222.404 389.934 222.196C389.702 221.988 389.482 221.752 389.274 221.488L389.166 222.508C389.102 222.836 388.902 223 388.566 223H387.054V205.288H389.394V212.488ZM411.923 223H409.571V212.704H403.451V219.844C403.451 220.324 403.567 220.684 403.799 220.924C404.039 221.156 404.343 221.272 404.711 221.272C404.927 221.272 405.111 221.244 405.263 221.188C405.423 221.132 405.559 221.072 405.671 221.008C405.783 220.936 405.879 220.872 405.959 220.816C406.039 220.76 406.111 220.732 406.175 220.732C406.255 220.732 406.315 220.752 406.355 220.792C406.403 220.824 406.451 220.88 406.499 220.96L407.195 222.088C406.811 222.44 406.355 222.712 405.827 222.904C405.299 223.096 404.751 223.192 404.183 223.192C403.199 223.192 402.439 222.916 401.903 222.364C401.375 221.812 401.111 221.024 401.111 220V212.704H399.695C399.559 212.704 399.443 212.664 399.347 212.584C399.259 212.496 399.215 212.368 399.215 212.2V211.252L401.207 210.976L401.723 207.34C401.755 207.204 401.815 207.1 401.903 207.028C401.999 206.948 402.119 206.908 402.263 206.908H403.451V211H411.923V223ZM412.451 206.968C412.451 207.184 412.407 207.392 412.319 207.592C412.231 207.784 412.111 207.956 411.959 208.108C411.815 208.252 411.643 208.368 411.443 208.456C411.243 208.536 411.035 208.576 410.819 208.576C410.603 208.576 410.399 208.536 410.207 208.456C410.015 208.368 409.843 208.252 409.691 208.108C409.547 207.956 409.431 207.784 409.343 207.592C409.263 207.392 409.223 207.184 409.223 206.968C409.223 206.744 409.263 206.532 409.343 206.332C409.431 206.132 409.547 205.96 409.691 205.816C409.843 205.664 410.015 205.548 410.207 205.468C410.399 205.38 410.603 205.336 410.819 205.336C411.035 205.336 411.243 205.38 411.443 205.468C411.643 205.548 411.815 205.664 411.959 205.816C412.111 205.96 412.231 206.132 412.319 206.332C412.407 206.532 412.451 206.744 412.451 206.968ZM419.136 223.192C418.152 223.192 417.392 222.916 416.856 222.364C416.328 221.812 416.064 221.024 416.064 220V212.704H414.648C414.512 212.704 414.396 212.664 414.3 212.584C414.212 212.496 414.168 212.368 414.168 212.2V211.252L416.148 210.976L416.676 207.34C416.708 207.204 416.768 207.1 416.856 207.028C416.952 206.948 417.072 206.908 417.216 206.908H418.404V211H421.86V212.704H418.404V219.844C418.404 220.324 418.52 220.684 418.752 220.924C418.992 221.156 419.296 221.272 419.664 221.272C419.88 221.272 420.064 221.244 420.216 221.188C420.376 221.132 420.512 221.072 420.624 221.008C420.736 220.936 420.832 220.872 420.912 220.816C420.992 220.76 421.064 220.732 421.128 220.732C421.208 220.732 421.268 220.752 421.308 220.792C421.356 220.824 421.404 220.88 421.452 220.96L422.148 222.088C421.764 222.44 421.308 222.712 420.78 222.904C420.252 223.096 419.704 223.192 419.136 223.192ZM426.415 205.288V223H424.063V205.288H426.415ZM437.833 215.548C437.833 215.084 437.765 214.656 437.629 214.264C437.501 213.872 437.309 213.532 437.053 213.244C436.797 212.956 436.485 212.732 436.117 212.572C435.749 212.412 435.325 212.332 434.845 212.332C433.861 212.332 433.085 212.616 432.517 213.184C431.957 213.752 431.601 214.54 431.449 215.548H437.833ZM439.765 221.26C439.477 221.596 439.145 221.888 438.769 222.136C438.393 222.376 437.993 222.572 437.569 222.724C437.145 222.876 436.705 222.988 436.249 223.06C435.801 223.132 435.357 223.168 434.917 223.168C434.077 223.168 433.297 223.028 432.577 222.748C431.865 222.46 431.245 222.044 430.717 221.5C430.197 220.948 429.789 220.268 429.493 219.46C429.205 218.644 429.061 217.708 429.061 216.652C429.061 215.804 429.193 215.016 429.457 214.288C429.721 213.552 430.097 212.912 430.585 212.368C431.081 211.824 431.685 211.396 432.397 211.084C433.109 210.772 433.909 210.616 434.797 210.616C435.541 210.616 436.225 210.74 436.849 210.988C437.481 211.228 438.025 211.58 438.481 212.044C438.937 212.508 439.293 213.08 439.549 213.76C439.813 214.44 439.945 215.216 439.945 216.088C439.945 216.448 439.905 216.692 439.825 216.82C439.745 216.94 439.597 217 439.381 217H431.389C431.413 217.728 431.517 218.364 431.701 218.908C431.885 219.444 432.137 219.892 432.457 220.252C432.785 220.612 433.173 220.88 433.621 221.056C434.069 221.232 434.569 221.32 435.121 221.32C435.641 221.32 436.089 221.26 436.465 221.14C436.849 221.02 437.177 220.892 437.449 220.756C437.729 220.612 437.961 220.48 438.145 220.36C438.337 220.24 438.505 220.18 438.649 220.18C438.841 220.18 438.989 220.252 439.093 220.396L439.765 221.26Z" fill="#8F8F8F"/>
<path d="M328 298C328 282.536 340.536 270 356 270H444C459.464 270 472 282.536 472 298C472 313.464 459.464 326 444 326H356C340.536 326 328 313.464 328 298Z" fill="#007038"/>
<path d="M363.177 288.165C363.064 287.604 362.572 287.2 362 287.2C361.428 287.2 360.935 287.604 360.823 288.165L360.537 289.596C360.442 290.071 360.071 290.442 359.596 290.537L358.165 290.823C357.604 290.935 357.2 291.428 357.2 292C357.2 292.572 357.604 293.064 358.165 293.177L359.596 293.463C360.071 293.558 360.442 293.929 360.537 294.404L360.823 295.835C360.935 296.396 361.428 296.8 362 296.8C362.572 296.8 363.064 296.396 363.177 295.835L363.463 294.404C363.558 293.929 363.929 293.558 364.404 293.463L365.835 293.177C366.396 293.064 366.8 292.572 366.8 292C366.8 291.428 366.396 290.935 365.835 290.823L364.404 290.537C363.929 290.442 363.558 290.071 363.463 289.596L363.177 288.165Z" fill="white"/>
<path d="M352.338 292.82C352.175 292.33 351.716 292 351.2 292C350.683 292 350.225 292.33 350.062 292.82L349.241 295.282C349.122 295.64 348.84 295.922 348.482 296.041L346.02 296.862C345.53 297.025 345.2 297.483 345.2 298C345.2 298.516 345.53 298.975 346.02 299.138L348.482 299.959C348.84 300.078 349.122 300.36 349.241 300.718L350.062 303.179C350.225 303.669 350.683 304 351.2 304C351.716 304 352.175 303.669 352.338 303.179L353.159 300.718C353.278 300.36 353.56 300.078 353.918 299.959L356.379 299.138C356.869 298.975 357.2 298.516 357.2 298C357.2 297.483 356.869 297.025 356.379 296.862L353.918 296.041C353.56 295.922 353.278 295.64 353.159 295.282L352.338 292.82Z" fill="white"/>
<path d="M360.738 302.42C360.575 301.93 360.116 301.6 359.6 301.6C359.083 301.6 358.625 301.93 358.462 302.42L358.241 303.082C358.122 303.44 357.84 303.722 357.482 303.841L356.82 304.062C356.33 304.225 356 304.683 356 305.2C356 305.716 356.33 306.175 356.82 306.338L357.482 306.559C357.84 306.678 358.122 306.96 358.241 307.318L358.462 307.979C358.625 308.469 359.083 308.8 359.6 308.8C360.116 308.8 360.575 308.469 360.738 307.979L360.959 307.318C361.078 306.96 361.36 306.678 361.718 306.559L362.379 306.338C362.869 306.175 363.2 305.716 363.2 305.2C363.2 304.683 362.869 304.225 362.379 304.062L361.718 303.841C361.36 303.722 361.078 303.44 360.959 303.082L360.738 302.42Z" fill="white"/>
<path d="M386.456 304.04V306H378.136V291.6H380.476V304.04H386.456ZM393.518 301.54C392.751 301.567 392.104 301.63 391.578 301.73C391.051 301.823 390.624 301.947 390.298 302.1C389.971 302.247 389.734 302.423 389.588 302.63C389.448 302.837 389.378 303.063 389.378 303.31C389.378 303.55 389.414 303.757 389.488 303.93C389.568 304.097 389.674 304.237 389.808 304.35C389.948 304.457 390.108 304.537 390.288 304.59C390.474 304.637 390.678 304.66 390.898 304.66C391.458 304.66 391.938 304.557 392.338 304.35C392.744 304.137 393.138 303.83 393.518 303.43V301.54ZM387.818 297.22C388.971 296.147 390.344 295.61 391.938 295.61C392.524 295.61 393.044 295.707 393.498 295.9C393.958 296.087 394.341 296.353 394.648 296.7C394.961 297.047 395.198 297.46 395.358 297.94C395.524 298.413 395.608 298.94 395.608 299.52V306H394.648C394.441 306 394.284 305.97 394.178 305.91C394.071 305.843 393.981 305.713 393.908 305.52L393.698 304.69C393.438 304.923 393.181 305.133 392.928 305.32C392.674 305.5 392.411 305.653 392.138 305.78C391.871 305.907 391.581 306 391.268 306.06C390.961 306.127 390.621 306.16 390.248 306.16C389.834 306.16 389.448 306.103 389.088 305.99C388.734 305.877 388.428 305.707 388.168 305.48C387.908 305.247 387.701 304.96 387.548 304.62C387.401 304.28 387.328 303.88 387.328 303.42C387.328 303.027 387.431 302.643 387.638 302.27C387.851 301.897 388.198 301.563 388.678 301.27C389.164 300.97 389.801 300.723 390.588 300.53C391.381 300.337 392.358 300.227 393.518 300.2V299.52C393.518 298.787 393.361 298.24 393.048 297.88C392.734 297.52 392.274 297.34 391.668 297.34C391.254 297.34 390.908 297.393 390.628 297.5C390.348 297.6 390.104 297.71 389.898 297.83C389.691 297.95 389.508 298.063 389.348 298.17C389.188 298.27 389.018 298.32 388.838 298.32C388.691 298.32 388.564 298.283 388.458 298.21C388.358 298.13 388.274 298.033 388.208 297.92L387.818 297.22ZM400.276 303.44C400.576 303.827 400.903 304.1 401.256 304.26C401.616 304.413 402.006 304.49 402.426 304.49C403.273 304.49 403.933 304.183 404.406 303.57C404.88 302.957 405.116 302.007 405.116 300.72C405.116 299.547 404.91 298.69 404.496 298.15C404.09 297.61 403.506 297.34 402.746 297.34C402.22 297.34 401.76 297.46 401.366 297.7C400.98 297.933 400.616 298.27 400.276 298.71V303.44ZM400.276 297.15C400.696 296.69 401.166 296.323 401.686 296.05C402.206 295.777 402.8 295.64 403.466 295.64C404.06 295.64 404.593 295.757 405.066 295.99C405.546 296.217 405.953 296.547 406.286 296.98C406.62 297.413 406.876 297.94 407.056 298.56C407.236 299.173 407.326 299.867 407.326 300.64C407.326 301.467 407.223 302.22 407.016 302.9C406.816 303.573 406.526 304.153 406.146 304.64C405.766 305.12 405.306 305.493 404.766 305.76C404.226 306.02 403.623 306.15 402.956 306.15C402.63 306.15 402.333 306.117 402.066 306.05C401.8 305.99 401.553 305.9 401.326 305.78C401.1 305.66 400.89 305.517 400.696 305.35C400.51 305.183 400.33 304.993 400.156 304.78L400.066 305.57C400.033 305.723 399.973 305.833 399.886 305.9C399.8 305.967 399.68 306 399.526 306H398.126V291.2H400.276V297.15ZM416.105 299.75C416.105 299.39 416.052 299.057 415.945 298.75C415.845 298.437 415.695 298.167 415.495 297.94C415.295 297.707 415.045 297.527 414.745 297.4C414.452 297.267 414.112 297.2 413.725 297.2C412.945 297.2 412.332 297.423 411.885 297.87C411.439 298.317 411.155 298.943 411.035 299.75H416.105ZM410.975 301.07C411.002 301.65 411.092 302.153 411.245 302.58C411.399 303 411.602 303.35 411.855 303.63C412.115 303.91 412.422 304.12 412.775 304.26C413.135 304.393 413.535 304.46 413.975 304.46C414.395 304.46 414.759 304.413 415.065 304.32C415.372 304.22 415.639 304.113 415.865 304C416.092 303.88 416.285 303.773 416.445 303.68C416.605 303.58 416.752 303.53 416.885 303.53C417.059 303.53 417.192 303.597 417.285 303.73L417.895 304.52C417.642 304.82 417.355 305.073 417.035 305.28C416.715 305.487 416.375 305.657 416.015 305.79C415.655 305.917 415.285 306.007 414.905 306.06C414.525 306.12 414.155 306.15 413.795 306.15C413.089 306.15 412.432 306.033 411.825 305.8C411.225 305.56 410.702 305.21 410.255 304.75C409.815 304.29 409.469 303.72 409.215 303.04C408.969 302.36 408.845 301.577 408.845 300.69C408.845 299.983 408.955 299.323 409.175 298.71C409.402 298.097 409.722 297.563 410.135 297.11C410.555 296.657 411.062 296.3 411.655 296.04C412.255 295.773 412.932 295.64 413.685 295.64C414.312 295.64 414.892 295.743 415.425 295.95C415.959 296.15 416.419 296.447 416.805 296.84C417.192 297.233 417.492 297.717 417.705 298.29C417.925 298.857 418.035 299.503 418.035 300.23C418.035 300.563 417.999 300.787 417.925 300.9C417.852 301.013 417.719 301.07 417.525 301.07H410.975ZM422.23 291.2V306H420.08V291.2H422.23Z" fill="white"/>
<path fill-rule="evenodd" clip-rule="evenodd" d="M434.4 298C434.4 297.503 434.803 297.1 435.3 297.1L450.408 297.1L447.887 294.759C447.523 294.421 447.502 293.852 447.84 293.488C448.179 293.123 448.748 293.102 449.112 293.44L453.312 297.34C453.496 297.511 453.6 297.75 453.6 298C453.6 298.25 453.496 298.489 453.312 298.659L449.112 302.559C448.748 302.898 448.179 302.877 447.84 302.512C447.502 302.148 447.523 301.579 447.887 301.24L450.408 298.9L435.3 298.9C434.803 298.9 434.4 298.497 434.4 298Z" fill="white"/>
</g>
<defs>
<clipPath id="clip0_52_17044">
<rect width="800" height="444" fill="white"/>
</clipPath>
</defs>
</svg>
