<svg width="800" height="444" viewBox="0 0 800 444" fill="none" xmlns="http://www.w3.org/2000/svg">
<g clip-path="url(#clip0_52_17015)">
<rect width="800" height="444" fill="white"/>
<path d="M374.784 205.496V210.92H365.856V239H359.136V210.92H350.208V205.496H374.784ZM383.095 209.24C381.911 209.24 380.919 208.872 380.119 208.136C379.351 207.368 378.967 206.424 378.967 205.304C378.967 204.184 379.351 203.256 380.119 202.52C380.919 201.752 381.911 201.368 383.095 201.368C384.279 201.368 385.255 201.752 386.023 202.52C386.823 203.256 387.223 204.184 387.223 205.304C387.223 206.424 386.823 207.368 386.023 208.136C385.255 208.872 384.279 209.24 383.095 209.24ZM386.407 212.408V239H379.687V212.408H386.407ZM400.87 217.928V230.792C400.87 231.688 401.078 232.344 401.494 232.76C401.942 233.144 402.678 233.336 403.702 233.336H406.822V239H402.598C396.934 239 394.102 236.248 394.102 230.744V217.928H390.934V212.408H394.102V205.832H400.87V212.408H406.822V217.928H400.87ZM418.376 203.48V239H411.656V203.48H418.376ZM449.735 225.128C449.735 226.088 449.671 226.952 449.543 227.72H430.103C430.263 229.64 430.935 231.144 432.119 232.232C433.303 233.32 434.759 233.864 436.487 233.864C438.983 233.864 440.759 232.792 441.815 230.648H449.063C448.295 233.208 446.823 235.32 444.647 236.984C442.471 238.616 439.799 239.432 436.631 239.432C434.071 239.432 431.767 238.872 429.719 237.752C427.703 236.6 426.119 234.984 424.967 232.904C423.847 230.824 423.287 228.424 423.287 225.704C423.287 222.952 423.847 220.536 424.967 218.456C426.087 216.376 427.655 214.776 429.671 213.656C431.687 212.536 434.007 211.976 436.631 211.976C439.159 211.976 441.415 212.52 443.399 213.608C445.415 214.696 446.967 216.248 448.055 218.264C449.175 220.248 449.735 222.536 449.735 225.128ZM442.775 223.208C442.743 221.48 442.119 220.104 440.903 219.08C439.687 218.024 438.199 217.496 436.439 217.496C434.775 217.496 433.367 218.008 432.215 219.032C431.095 220.024 430.407 221.416 430.151 223.208H442.775Z" fill="#212121"/>
</g>
<defs>
<clipPath id="clip0_52_17015">
<rect width="800" height="444" fill="white"/>
</clipPath>
</defs>
</svg>
