<svg width="52" height="52" viewBox="0 0 52 52" fill="none" xmlns="http://www.w3.org/2000/svg">
<g clip-path="url(#clip0_1826_341)">
<rect width="52" height="52" fill="#1A1A1A"/>
<rect x="4.35246" y="5.90983" width="43.2951" height="40.1803" rx="3.64754" fill="#1A1A1A" stroke="#404040" stroke-width="0.704918"/>
<rect x="2.5" y="19.5" width="47" height="14" rx="3.5" fill="#1A1A1A"/>
<rect x="2.5" y="19.5" width="47" height="14" rx="3.5" stroke="#B5B5B5"/>
<circle cx="8.93449" cy="10.4917" r="1.40984" fill="#404040"/>
<circle cx="13.164" cy="10.4917" r="1.40984" fill="#404040"/>
<circle cx="17.3935" cy="10.4917" r="1.40984" fill="#404040"/>
<g clip-path="url(#clip1_1826_341)">
<path d="M24.8687 23.0263L26.316 21.579M26.316 21.579L27.7634 23.0263M26.316 21.579V25.0527" stroke="white" stroke-width="0.578947" stroke-linecap="round" stroke-linejoin="round"/>
</g>
<g clip-path="url(#clip2_1826_341)">
<path d="M27.7632 29.9737L26.3158 31.421M26.3158 31.421L24.8684 29.9737M26.3158 31.421L26.3158 27.9473" stroke="white" stroke-width="0.578947" stroke-linecap="round" stroke-linejoin="round"/>
</g>
</g>
<defs>
<clipPath id="clip0_1826_341">
<rect width="52" height="52" rx="8" fill="white"/>
</clipPath>
<clipPath id="clip1_1826_341">
<rect width="4.63158" height="4.63158" fill="white" transform="translate(24.0002 21)"/>
</clipPath>
<clipPath id="clip2_1826_341">
<rect width="4.63158" height="4.63158" fill="white" transform="translate(28.6316 32) rotate(-180)"/>
</clipPath>
</defs>
</svg>
