<svg width="52" height="52" viewBox="0 0 52 52" fill="none" xmlns="http://www.w3.org/2000/svg">
<g clip-path="url(#clip0_1744_7541)">
<rect width="52" height="52" fill="#1A1A1A"/>
<rect x="4.35246" y="5.90983" width="43.2951" height="40.1803" rx="3.64754" fill="#1A1A1A" stroke="#404040" stroke-width="0.704918"/>
<rect x="4.5" y="14.5" width="43" height="33" rx="3.5" fill="#1A1A1A"/>
<rect x="4.5" y="14.5" width="43" height="33" rx="3.5" stroke="#B5B5B5"/>
<rect x="9.5" y="22.5" width="13" height="17" rx="3.5" fill="#1A1A1A"/>
<rect x="9.5" y="22.5" width="13" height="17" rx="3.5" stroke="#B5B5B5"/>
<path d="M22.5 33.5V36C22.5 37.933 20.933 39.5 19 39.5H13C11.067 39.5 9.5 37.933 9.5 36V33.5H22.5Z" fill="#1A1A1A"/>
<path d="M22.5 33.5V36C22.5 37.933 20.933 39.5 19 39.5H13C11.067 39.5 9.5 37.933 9.5 36V33.5H22.5Z" stroke="#B5B5B5"/>
<rect x="27.5" y="22.5" width="13" height="17" rx="3.5" fill="#1A1A1A"/>
<rect x="27.5" y="22.5" width="13" height="17" rx="3.5" stroke="#B5B5B5"/>
<path d="M40.5 33.5V36C40.5 37.933 38.933 39.5 37 39.5H31C29.067 39.5 27.5 37.933 27.5 36V33.5H40.5Z" fill="#1A1A1A"/>
<path d="M40.5 33.5V36C40.5 37.933 38.933 39.5 37 39.5H31C29.067 39.5 27.5 37.933 27.5 36V33.5H40.5Z" stroke="#B5B5B5"/>
<rect x="45.5" y="22.5" width="13" height="17" rx="3.5" fill="#1A1A1A"/>
<rect x="45.5" y="22.5" width="13" height="17" rx="3.5" stroke="#B5B5B5"/>
<path d="M58.5 33.5V36C58.5 37.933 56.933 39.5 55 39.5H49C47.067 39.5 45.5 37.933 45.5 36V33.5H58.5Z" fill="#1A1A1A"/>
<path d="M58.5 33.5V36C58.5 37.933 56.933 39.5 55 39.5H49C47.067 39.5 45.5 37.933 45.5 36V33.5H58.5Z" stroke="#B5B5B5"/>
<circle cx="8.93425" cy="10.4917" r="1.40984" fill="#404040"/>
<circle cx="13.1637" cy="10.4917" r="1.40984" fill="#404040"/>
<circle cx="17.3932" cy="10.4917" r="1.40984" fill="#404040"/>
</g>
<defs>
<clipPath id="clip0_1744_7541">
<rect width="52" height="52" rx="8" fill="white"/>
</clipPath>
</defs>
</svg>
