<svg width="36" height="36" viewBox="0 0 36 36" fill="none" xmlns="http://www.w3.org/2000/svg">
<path d="M0 18C0 8.05887 8.05887 0 18 0C27.9411 0 36 8.05887 36 18C36 27.9411 27.9411 36 18 36C8.05887 36 0 27.9411 0 18Z" fill="black" fill-opacity="0.25"/>
<path fill-rule="evenodd" clip-rule="evenodd" d="M14.2197 21.7803C13.9268 21.4874 13.9268 21.0126 14.2197 20.7197L19.4393 15.5H15.75C15.3358 15.5 15 15.1642 15 14.75C15 14.3358 15.3358 14 15.75 14H21.25C21.6642 14 22 14.3358 22 14.75V20.25C22 20.6642 21.6642 21 21.25 21C20.8358 21 20.5 20.6642 20.5 20.25V16.5607L15.2803 21.7803C14.9874 22.0732 14.5126 22.0732 14.2197 21.7803Z" fill="white"/>
</svg>
