<svg width="24" height="24" viewBox="0 0 24 24" fill="none" xmlns="http://www.w3.org/2000/svg">
<g clip-path="url(#clip0_15487_253)">
<path d="M15.6565 5.46765C14.336 4.43863 12.815 3.79307 11.1913 3.56979C10.5311 3.47756 9.23993 3.47756 8.61882 3.56493C6.74569 3.83675 5.0095 4.66676 3.8015 5.87052C2.63263 7.03545 1.9675 8.60326 2.05553 9.99632C2.13378 11.2438 2.71088 12.0204 3.73303 12.2582C4.17319 12.3602 5.07797 12.3262 5.64529 12.1854C6.86307 11.8845 8.78999 11.0253 12.0423 9.34105C14.0377 8.30717 15.8864 7.40435 16.4977 7.16165C16.7911 7.04516 17.0357 6.91896 17.0455 6.88013C17.0601 6.79276 16.1016 5.81228 15.6565 5.46765Z" fill="white"/>
<path d="M23.775 4.08914C23.9022 3.88043 24 3.69598 24 3.67656C24 3.61832 23.4669 3.63773 23.1197 3.71539C22.7089 3.80276 22.4497 3.89499 21.9753 4.13768L21.5938 4.33184L21.1292 4.24446C20.87 4.19593 20.5032 4.11827 20.3124 4.07458C20.1217 4.02604 19.9554 3.99692 19.9456 4.00663C19.9359 4.01633 20.1217 4.22505 20.3516 4.4726C20.9922 5.14729 21.5644 6.0404 21.853 6.83158C21.9899 7.20048 22.0291 7.2296 22.0682 7.00632C22.0877 6.89954 22.166 6.5355 22.2394 6.18602C22.3763 5.55501 22.3763 5.55501 22.5866 5.38998C23.0219 5.05021 23.5598 4.46289 23.775 4.08914Z" fill="white"/>
<path d="M19.3147 7.42376C19.6375 7.05002 20.4298 5.97731 20.4298 5.91421C20.4298 5.8414 20.3711 5.86567 20.1364 6.0307C20.0141 6.11807 19.4957 6.45299 18.9871 6.78305C18.1312 7.33154 17.6568 7.64219 15.5636 8.98671C15.1577 9.24397 13.8274 10.0982 12.6047 10.8894C11.3821 11.6758 10.0176 12.5495 9.57251 12.8358C9.12746 13.1174 8.23736 13.6901 7.59179 14.1075C6.94622 14.525 5.88983 15.1997 5.24426 15.6123C4.59869 16.0297 3.77706 16.5539 3.42004 16.7869C2.30008 17.5101 0.461183 18.6848 0.211758 18.8352C0.0846009 18.9177 -0.0132128 18.9954 0.00145925 19.01C0.0161313 19.0245 0.211758 18.9663 0.436729 18.8838C0.6617 18.8012 1.19478 18.6119 1.62516 18.4615C3.40048 17.845 6.32999 16.7189 8.20312 15.9278C10.0958 15.1317 11.2256 14.855 12.3846 14.9133C13.5095 14.9667 14.2138 15.3793 14.6588 16.2578C15.055 17.0344 15.055 17.9761 14.6588 18.8158C14.2089 19.7817 13.2992 20.6312 12.0961 21.2088C11.7733 21.3689 11.5386 21.4951 11.5777 21.5C11.7195 21.5 12.4433 21.3107 12.9471 21.136C14.2724 20.6748 15.4462 19.9371 16.4292 18.942C17.7106 17.646 18.4784 16.253 18.8844 14.4862C19.2903 12.7096 19.1142 10.8069 18.3904 9.06437L18.2143 8.64209L18.63 8.19068C18.855 7.94313 19.1631 7.5985 19.3147 7.42376Z" fill="white"/>
</g>
<defs>
<clipPath id="clip0_15487_253">
<rect width="24" height="24" fill="white"/>
</clipPath>
</defs>
</svg>
