<svg width="16" height="16" viewBox="0 0 16 16" fill="none" xmlns="http://www.w3.org/2000/svg">
<g clip-path="url(#clip0_1717_1510)">
<path fill-rule="evenodd" clip-rule="evenodd" d="M15.1643 3.22239C15.4126 3.47223 15.5909 3.78289 15.6813 4.12328C16.0159 5.37964 16.0159 7.99964 16.0159 7.99964C16.0159 7.99964 16.0159 10.6196 15.6813 11.876C15.5909 12.2164 15.4126 12.5271 15.1643 12.7769C14.9161 13.0267 14.6066 13.207 14.2668 13.2996C13.0159 13.636 8.01587 13.636 8.01587 13.636C8.01587 13.636 3.01587 13.636 1.76496 13.2996C1.42516 13.207 1.11564 13.0267 0.867394 12.7769C0.619147 12.5271 0.440873 12.2164 0.350415 11.876C0.0158692 10.6196 0.0158691 7.99964 0.0158691 7.99964C0.0158691 7.99964 0.0158692 5.37964 0.350415 4.12328C0.440873 3.78289 0.619147 3.47223 0.867394 3.22239C1.11564 2.97254 1.42516 2.79228 1.76496 2.69965C3.01587 2.36328 8.01587 2.36328 8.01587 2.36328C8.01587 2.36328 13.0159 2.36328 14.2668 2.69965C14.6066 2.79228 14.9161 2.97254 15.1643 3.22239ZM10.5613 7.99967L6.37952 5.62057V10.3788L10.5613 7.99967Z" fill="#BDBDBD"/>
</g>
<defs>
<clipPath id="clip0_1717_1510">
<rect width="16" height="16" fill="white"/>
</clipPath>
</defs>
</svg>
